<svg width="32" height="32" viewBox="0 0 32 32" fill="none" xmlns="http://www.w3.org/2000/svg">
<path fill-rule="evenodd" clip-rule="evenodd" d="M9.16 5C7.96707 5 7 6.03681 7 7.31579V24.6842C7 25.9632 7.96707 27 9.16 27H24.28C24.6776 27 25 26.6544 25 26.2281V25.02C25 24.8985 24.9052 24.8 24.7882 24.8H10.1765C9.5917 24.8 9.11765 24.3075 9.11765 23.7C9.11765 23.0925 9.5917 22.6 10.1765 22.6H24.7882C24.9052 22.6 25 22.5015 25 22.38V5.77193C25 5.3456 24.6776 5 24.28 5H9.16ZM14.1843 15.1363L11.5968 17.8244C11.4634 17.963 11.5579 18.2 11.7465 18.2H22.1022C22.2729 18.2 22.3734 18.001 22.2765 17.8551L19.0317 12.967C18.9511 12.8457 18.7807 12.8394 18.692 12.9545L16.1008 16.3194C16.0251 16.4178 15.8854 16.4301 15.7948 16.3464L14.4747 15.1274C14.3909 15.05 14.2636 15.0539 14.1843 15.1363ZM13.7804 12.7231C14.5836 12.7231 15.2346 12.0467 15.2346 11.2124C15.2346 10.378 14.5836 9.70159 13.7804 9.70159C12.9773 9.70159 12.3262 10.378 12.3262 11.2124C12.3262 12.0467 12.9773 12.7231 13.7804 12.7231Z" fill="white"/>
</svg>
