<svg width="32" height="32" viewBox="0 0 32 32" fill="none" xmlns="http://www.w3.org/2000/svg">
<path fill-rule="evenodd" clip-rule="evenodd" d="M13.6622 5.8C13.6622 5.35817 14.0203 5 14.4622 5H17.7878C18.2297 5 18.5878 5.35817 18.5878 5.8V26.0919C18.5878 26.5337 18.2297 26.8919 17.7878 26.8919H14.4622C14.0203 26.8919 13.6622 26.5337 13.6622 26.0919V5.8ZM6 18.9351C6 18.4933 6.35817 18.1351 6.8 18.1351H10.1257C10.5675 18.1351 10.9257 18.4933 10.9257 18.9351V26.0919C10.9257 26.5337 10.5675 26.8919 10.1257 26.8919H6.8C6.35817 26.8919 6 26.5337 6 26.0919V18.9351ZM22.1243 11.5676C21.6825 11.5676 21.3243 11.9257 21.3243 12.3676V26.0919C21.3243 26.5337 21.6825 26.8919 22.1243 26.8919H25.45C25.8918 26.8919 26.25 26.5337 26.25 26.0919V12.3676C26.25 11.9257 25.8918 11.5676 25.45 11.5676H22.1243Z" fill="white"/>
</svg>
