<svg width="24" height="24" viewBox="0 0 24 24" fill="none" xmlns="http://www.w3.org/2000/svg">
<path d="M10 16.75H10.75V15.25H10V16.75ZM5 16V15.25L4.25 16H5ZM4.25 21V21.75H5.75V21H4.25ZM10 15.25H5V16.75H10V15.25ZM4.25 16V21H5.75V16H4.25Z" fill="white"/>
<path d="M19.5 14.9971C18.936 16.3848 17.9917 17.5874 16.7744 18.4682C15.5571 19.3491 14.1157 19.8727 12.614 19.9797C11.1122 20.0868 9.61043 19.7728 8.27922 19.0736C7.17461 18.4934 6.22423 17.6672 5.5 16.6637" stroke="white" stroke-width="1.5" stroke-linecap="square" stroke-linejoin="bevel"/>
<path d="M14 7.25H13.25V8.75H14V7.25ZM19 8V8.75L19.75 8H19ZM19.75 3V2.25H18.25V3H19.75ZM14 8.75H19V7.25H14V8.75ZM19.75 8V3H18.25V8H19.75Z" fill="white"/>
<path d="M4.5 9.00315C5.06851 7.61541 6.02035 6.41278 7.24734 5.53197C8.47433 4.65116 9.92726 4.12749 11.441 4.02048C12.9547 3.91346 14.4685 4.2274 15.8103 4.92661C16.8678 5.47766 17.7851 6.25057 18.5 7.18658" stroke="white" stroke-width="1.5" stroke-linecap="square" stroke-linejoin="bevel"/>
</svg>
