<svg width="24" height="24" viewBox="0 0 24 24" fill="none" xmlns="http://www.w3.org/2000/svg">
<path fill-rule="evenodd" clip-rule="evenodd" d="M3.83287 10.2987C3.55262 12.3207 3.98815 14.3771 5.06407 16.1119C6.14 17.8466 7.78861 19.1506 9.72453 19.7981C11.6604 20.4457 13.7618 20.3959 15.665 19.6576C17.5681 18.9192 19.1532 17.5387 20.1458 15.7549C21.1385 13.9712 21.4762 11.8965 21.1006 9.89004C20.725 7.88355 19.6597 6.07153 18.0891 4.76763C16.7117 3.62417 15.0218 2.93458 13.25 2.78219L13.25 7L11.75 7L11.75 2L12.5 1.25C14.8913 1.25 17.2073 2.08607 19.0472 3.61351C20.8871 5.14094 22.135 7.26359 22.575 9.61405C23.015 11.9645 22.6193 14.3948 21.4565 16.4843C20.2937 18.5739 18.4369 20.191 16.2075 21.056C13.9782 21.9209 11.5165 21.9792 9.24873 21.2207C6.98094 20.4622 5.04971 18.9346 3.78934 16.9025C2.52897 14.8703 2.01878 12.4614 2.34708 10.0928C2.67538 7.72413 3.82151 5.54482 5.58707 3.93206L6.59872 5.03956C5.09153 6.41631 4.11313 8.2767 3.83287 10.2987Z" fill="white"/>
<path d="M8.29554 7.41626C8.22864 7.32205 8.34828 7.20829 8.439 7.27984L12.9427 10.832C13.3847 11.1806 13.4151 11.8398 13.0073 12.2276C12.5994 12.6155 11.9425 12.5519 11.6166 12.093L8.29554 7.41626Z" fill="white"/>
</svg>
