<svg width="24" height="24" viewBox="0 0 24 24" fill="none" xmlns="http://www.w3.org/2000/svg">
<path fill-rule="evenodd" clip-rule="evenodd" d="M9.2838 4.56357C9.31531 4.54528 9.35427 4.54557 9.38551 4.56432L10.6827 5.3431C11.0636 5.57178 11.4995 5.69258 11.9438 5.69258H12.0558C12.4991 5.69258 12.9341 5.5723 13.3144 5.34456L14.6057 4.57138C14.6368 4.55274 14.6756 4.55241 14.7071 4.57053L17.0333 5.91105C17.0648 5.92921 17.084 5.96304 17.0834 5.99941L17.058 7.51148C17.0505 7.95567 17.1639 8.39353 17.3861 8.77821L17.442 8.87499C17.6637 9.25871 17.9853 9.57512 18.3725 9.79055L19.691 10.5241C19.7227 10.5417 19.7424 10.575 19.7425 10.6113L19.7485 13.2904C19.7486 13.3269 19.7289 13.3605 19.697 13.3782L18.3753 14.1106C17.9865 14.3261 17.6636 14.6432 17.4413 15.0281L17.3861 15.1236C17.1639 15.5083 17.0505 15.9462 17.058 16.3903L17.0834 17.9042C17.084 17.9404 17.065 17.9742 17.0336 17.9924L14.7147 19.3383C14.6832 19.3565 14.6443 19.3563 14.613 19.3375L13.3158 18.5587C12.9349 18.33 12.499 18.2092 12.0547 18.2092H11.9428C11.4995 18.2092 11.0644 18.3295 10.6841 18.5573L9.39282 19.3304C9.3617 19.3491 9.32292 19.3494 9.29148 19.3313L6.96523 17.9908C6.93371 17.9726 6.91454 17.9388 6.91515 17.9024L6.9406 16.3952C6.94804 15.9542 6.83633 15.5194 6.61725 15.1367L6.55815 15.0335C6.33638 14.646 6.01298 14.3265 5.62286 14.1095L4.30749 13.3778C4.27583 13.3601 4.25617 13.3268 4.25609 13.2906L4.25 10.6114C4.24992 10.5749 4.26967 10.5413 4.30155 10.5237L5.62327 9.7912C6.01205 9.57575 6.3349 9.25859 6.55723 8.8737L6.61239 8.77821C6.8346 8.39353 6.94804 7.95567 6.94057 7.51148L6.9151 5.99763C6.91449 5.96138 6.93354 5.92763 6.9649 5.90943L9.2838 4.56357ZM10.1576 3.27828C9.65799 2.97834 9.03483 2.97373 8.53085 3.26624L6.21195 4.6121C5.71035 4.90322 5.40555 5.44299 5.41531 6.02287L5.44078 7.53671C5.44368 7.70896 5.39969 7.87875 5.31352 8.02792L5.25836 8.12341C5.17215 8.27266 5.04696 8.39564 4.89619 8.47919L3.57448 9.21164C3.06455 9.49423 2.74868 10.0318 2.75 10.6148L2.75609 13.294C2.75741 13.8734 3.07191 14.4069 3.57827 14.6886L4.89365 15.4203C5.04492 15.5045 5.17033 15.6284 5.25633 15.7786L5.31542 15.8819C5.40038 16.0303 5.4437 16.1989 5.44081 16.3699L5.41537 17.8771C5.40555 18.4588 5.71223 19 6.2163 19.2904L8.54255 20.6309C9.04532 20.9207 9.66555 20.9155 10.1634 20.6174L11.4547 19.8442C11.6022 19.7559 11.7709 19.7092 11.9428 19.7092H12.0547C12.227 19.7092 12.396 19.7561 12.5437 19.8448L13.841 20.6235C14.3406 20.9235 14.9637 20.9281 15.4677 20.6356L17.7866 19.2897C18.2882 18.9986 18.593 18.4588 18.5832 17.8789L18.5578 16.3651C18.5549 16.1929 18.5988 16.0231 18.685 15.8739L18.7402 15.7784C18.8264 15.6292 18.9516 15.5062 19.1023 15.4226L20.4241 14.6902C20.934 14.4076 21.2499 13.87 21.2485 13.287L21.2424 10.6078C21.2411 10.0284 20.9266 9.49494 20.4203 9.21324L19.1017 8.47973C18.9516 8.3962 18.8269 8.2735 18.7409 8.1247L18.685 8.02792C18.5988 7.87875 18.5549 7.70896 18.5578 7.53671L18.5832 6.02464C18.593 5.44299 18.2863 4.90184 17.7823 4.61139L15.456 3.27087C14.9532 2.98115 14.333 2.98634 13.8351 3.28444L12.5438 4.05763C12.3964 4.14594 12.2277 4.19258 12.0558 4.19258H11.9438C11.7715 4.19258 11.6025 4.14573 11.4548 4.05706L10.1576 3.27828ZM9.34888 11.9509C9.34888 10.4873 10.5354 9.30078 11.999 9.30078C13.4627 9.30078 14.6492 10.4873 14.6492 11.9509C14.6492 13.4146 13.4627 14.6011 11.999 14.6011C10.5354 14.6011 9.34888 13.4146 9.34888 11.9509ZM11.999 7.80078C9.70697 7.80078 7.84888 9.65887 7.84888 11.9509C7.84888 14.243 9.70697 16.1011 11.999 16.1011C14.2911 16.1011 16.1492 14.243 16.1492 11.9509C16.1492 9.65887 14.2911 7.80078 11.999 7.80078Z" fill="white"/>
</svg>
