<svg width="24" height="24" viewBox="0 0 24 24" fill="none" xmlns="http://www.w3.org/2000/svg">
<path d="M21.5999 12C21.5999 17.302 17.3018 21.6 11.9999 21.6C6.69797 21.6 2.3999 17.302 2.3999 12C2.3999 6.69809 6.69797 2.40002 11.9999 2.40002C17.3018 2.40002 21.5999 6.69809 21.5999 12Z" fill="#313238"/>
<path fill-rule="evenodd" clip-rule="evenodd" d="M24 12C24 18.6274 18.6274 24 12 24C5.37258 24 0 18.6274 0 12C0 5.37258 5.37258 0 12 0C18.6274 0 24 5.37258 24 12ZM12 21.6C17.3019 21.6 21.6 17.3019 21.6 12C21.6 6.69807 17.3019 2.4 12 2.4C6.69807 2.4 2.4 6.69807 2.4 12C2.4 17.3019 6.69807 21.6 12 21.6Z" fill="#1B1C22"/>
<path fill-rule="evenodd" clip-rule="evenodd" d="M12 11.369L8.43097 7.79999L7.80005 8.43091L11.3691 11.9999L7.80005 15.569L8.43097 16.1999L12 12.6309L15.569 16.1998L16.1999 15.5689L12.6309 11.9999L16.1999 8.43091L15.569 7.79999L12 11.369Z" fill="white"/>
</svg>
