<svg width="32" height="32" viewBox="0 0 32 32" fill="none" xmlns="http://www.w3.org/2000/svg">
<path fill-rule="evenodd" clip-rule="evenodd" d="M26.0974 17.1602C25.6309 21.9331 21.6066 25.6629 16.7111 25.6629C15.2477 25.6629 13.8621 25.3296 12.6262 24.7348C18.0646 22.7919 21.5844 20.7736 26.0974 17.1602ZM26.0838 14.3875C20.5506 18.9929 16.9255 21.0752 10.0396 23.3422C9.71665 23.445 9.4022 23.5388 9.09722 23.6233C7.76725 23.9917 6.57215 24.1962 5.61398 24.179C4.71949 24.163 3.72193 23.944 3.24964 23.1085C2.77735 22.2729 3.1042 21.3053 3.55178 20.5307C4.03123 19.701 4.82271 18.7825 5.8243 17.833C6.26544 17.4149 6.75397 16.9845 7.28488 16.5465C7.28145 16.4419 7.27972 16.3369 7.27972 16.2315C7.27972 11.0226 11.5023 6.80005 16.7111 6.80005C18.5842 6.80005 20.3297 7.34606 21.7973 8.2876C22.544 8.01722 23.2552 7.78832 23.9212 7.60379C25.2512 7.23531 26.4463 7.03089 27.4045 7.04805C28.2989 7.06406 29.2965 7.28304 29.7688 8.11858C30.2411 8.95413 29.9142 9.92173 29.4667 10.6963C28.9872 11.5261 28.1957 12.4446 27.1941 13.394C26.8518 13.7186 26.4809 14.0504 26.0838 14.3875ZM23.2975 9.48082C24.2413 10.4017 24.9927 11.5189 25.4857 12.7664C25.694 12.5818 25.8929 12.3998 26.0818 12.2206C27.0324 11.3196 27.6986 10.5246 28.0667 9.88745C28.4667 9.1952 28.3773 8.94257 28.3613 8.91418C28.3452 8.88579 28.1749 8.67892 27.3755 8.66461C26.6398 8.65143 25.6151 8.81221 24.3529 9.16191C24.0145 9.25567 23.6622 9.3621 23.2975 9.48082ZM6.9366 19.0064C7.12855 18.8245 7.3307 18.6395 7.54259 18.452C7.85026 19.7269 8.41695 20.9008 9.18384 21.9149C9.00773 21.9681 8.8349 22.0182 8.66554 22.0652C7.40333 22.4149 6.37861 22.5756 5.64292 22.5625C4.84354 22.5481 4.67321 22.3413 4.65716 22.3129C4.64111 22.2845 4.55172 22.0319 4.95171 21.3396C5.31983 20.7025 5.98605 19.9075 6.9366 19.0064ZM14.442 10.198C14.2354 9.81438 13.7569 9.67084 13.3733 9.87741C12.6987 10.2407 11.7453 10.9596 10.9808 11.978C10.2104 13.0044 9.60078 14.3799 9.72709 16.0219C9.76051 16.4564 10.1398 16.7815 10.5742 16.7481C11.0087 16.7146 11.3337 16.3354 11.3003 15.9009C11.211 14.7404 11.6345 13.7356 12.2428 12.9252C12.8571 12.1068 13.6283 11.5322 14.1214 11.2667C14.505 11.0601 14.6486 10.5817 14.442 10.198ZM3.52727 13.9271C4.37076 13.9271 5.05455 13.2433 5.05455 12.3998C5.05455 11.5563 4.37076 10.8726 3.52727 10.8726C2.68378 10.8726 2 11.5563 2 12.3998C2 13.2433 2.68378 13.9271 3.52727 13.9271Z" fill="white"/>
</svg>
